<?xml version="1.0" encoding="utf-8"?>
<!-- Generator: Adobe Illustrator 19.1.0, SVG Export Plug-In . SVG Version: 6.00 Build 0)  -->
<svg version="1.1" id="Layer_1" xmlns="http://www.w3.org/2000/svg" xmlns:xlink="http://www.w3.org/1999/xlink" x="0px" y="0px"
	 viewBox="-162 26 50 50" style="enable-background:new -162 26 50 50;" xml:space="preserve">
<style type="text/css">
	.st0{fill:#00C0FF;}
</style>
<path class="st0" d="M-117.3,47.7c-1.6-0.1-2.9,1-3.3,2.4l-5-0.2c-0.4-3.6-2.5-6.8-5.4-8.6l2.7-4.3c1.4,0.4,3-0.1,3.8-1.4
	c1-1.6,0.5-3.7-1.1-4.7s-3.7-0.5-4.7,1.1c-0.8,1.3-0.6,3,0.4,4.1l-2.8,4.4c-1.3-0.6-2.8-0.9-4.4-0.9c-2.2,0-4.3,0.6-6.1,1.7l-2.5-5
	c1.1-1,1.5-2.6,0.8-4c-0.8-1.7-2.9-2.3-4.5-1.5c-1.7,0.8-2.3,2.9-1.5,4.5c0.7,1.4,2.2,2.1,3.7,1.8l2.7,5.3c-2.3,2-3.8,5-3.9,8.3
	l-4.9-0.2c-0.3-1.4-1.6-2.6-3.2-2.6c-1.9-0.1-3.4,1.4-3.5,3.3c-0.1,1.9,1.4,3.4,3.3,3.5c1.6,0.1,2.9-1,3.3-2.4l5,0.2
	c0.4,3.2,2.1,5.9,4.5,7.7l-3,4.7c-1.4-0.4-3,0.1-3.8,1.4c-1,1.6-0.5,3.7,1.1,4.7c1.6,1,3.7,0.5,4.7-1.1c0.8-1.3,0.6-3-0.4-4.1l3-4.7
	c1.6,0.9,3.4,1.3,5.4,1.3c2,0,3.9-0.5,5.5-1.4l2.3,4.6c-1.1,1-1.5,2.6-0.8,4c0.8,1.7,2.9,2.3,4.5,1.5c1.7-0.8,2.3-2.9,1.5-4.5
	c-0.7-1.4-2.2-2.1-3.7-1.8l-2.4-4.8c2.5-2,4.2-5,4.4-8.4l4.9,0.2c0.3,1.4,1.6,2.6,3.2,2.6c1.9,0.1,3.4-1.4,3.5-3.3
	C-114,49.3-115.4,47.8-117.3,47.7z M-129.9,56.8c0,0.6-0.5,1-1,1h-6.1h-6.1c-0.6,0-1-0.5-1-1V56c0-0.4,0.2-0.7,0.5-0.9
	c1.6-0.9,3.5-1.9,4.1-2.4c0,0,0-0.1,0-0.1l0,0c0,0-0.1-0.2-0.2-0.3c-0.2-0.2-0.4-0.5-0.8-1c-0.9-1.2-0.7-4.2-0.5-5.8
	c0.2-1.9,3-2.7,4-2.7h0c1,0,3.8,0.8,4,2.7c0.2,1.6,0.4,4.6-0.5,5.8c-0.3,0.5-0.6,0.7-0.8,1c-0.1,0.1-0.2,0.2-0.2,0.3l0,0
	c0,0,0,0.1,0,0.1c0.6,0.4,2.5,1.5,4.1,2.4c0.3,0.2,0.5,0.5,0.5,0.9V56.8z"/>
</svg>
